<?xml version="1.0" standalone="no"?>
<!DOCTYPE svg PUBLIC "-//W3C//DTD SVG 20010904//EN"
 "http://www.w3.org/TR/2001/REC-SVG-20010904/DTD/svg10.dtd">
<svg version="1.0" xmlns="http://www.w3.org/2000/svg"
 width="362.000000pt" height="362.000000pt" viewBox="0 0 362.000000 362.000000"
 preserveAspectRatio="xMidYMid meet">
<metadata>
Created by potrace 1.11, written by Peter Selinger 2001-2013
</metadata>
<g transform="translate(0.000000,362.000000) scale(0.100000,-0.100000)"
fill="#000000" stroke="none">
<path d="M1522 3605 c-756 -144 -1332 -757 -1447 -1542 -23 -157 -14 -465 19
-618 76 -362 241 -672 494 -929 235 -239 514 -398 847 -483 108 -27 116 -28
385 -28 251 1 283 3 365 23 342 86 606 234 850 475 256 255 422 567 502 943
24 117 27 149 27 344 1 207 -2 255 -23 367 -123 647 -581 1182 -1183 1384
-187 63 -241 71 -513 75 -184 2 -269 -1 -323 -11z"/>
</g>
</svg>
